<svg width="160" height="70" viewBox="0 0 160 70" fill="none" xmlns="http://www.w3.org/2000/svg">
<rect x="2" y="2" width="66" height="66" rx="12" stroke="url(#paint0_linear_1_59)" stroke-width="4"/>
<path d="M47.5173 51.04C45.784 51.04 44.544 50.5467 43.7973 49.56C43.0507 48.5467 42.6773 47.0667 42.6773 45.12C42.6773 43.1733 43.304 38.6933 44.5573 31.68H43.9173C42.2907 33.8133 40.944 36.36 39.8773 39.32C38.8107 42.28 38.1573 44.9467 37.9173 47.32C36.6107 48.5467 35.104 49.16 33.3973 49.16C32.704 49.16 32.0907 48.92 31.5573 48.44C31.0507 47.9333 30.544 47.0667 30.0373 45.84C29.0507 43.36 28.344 38.64 27.9173 31.68H27.2773C25.9707 37.4133 25.3173 41.4533 25.3173 43.8C25.3173 46.1467 25.7173 47.96 26.5173 49.24C24.9173 50.44 23.2507 51.04 21.5173 51.04C19.784 51.04 18.544 50.5467 17.7973 49.56C17.0507 48.5467 16.6773 47.0533 16.6773 45.08C16.6773 43.08 17.5173 37.44 19.1973 28.16L17.0773 23.88C20.0907 21.9333 22.8373 20.96 25.3173 20.96C26.4107 20.96 27.3307 21.08 28.0773 21.32C28.8507 21.5333 29.584 21.96 30.2773 22.6C30.9973 23.24 31.584 24.1333 32.0373 25.28C33.0773 27.8667 33.824 31.64 34.2773 36.6H34.7573C36.144 32.52 38.064 29.0133 40.5173 26.08C41.8507 24.5067 43.4373 23.2667 45.2773 22.36C47.144 21.4533 49.1573 21 51.3173 21C53.3707 21 54.3973 22.24 54.3973 24.72C54.3973 25.5467 53.8773 28.6267 52.8373 33.96C51.824 39.2667 51.3173 42.4267 51.3173 43.44C51.3173 46.0267 51.7173 47.96 52.5173 49.24C50.9173 50.44 49.2507 51.04 47.5173 51.04Z" fill="white"/>
<g filter="url(#filter0_d_1_59)">
<path d="M90.8411 31.16C91.5878 29.8533 92.6811 28.7867 94.1211 27.96C95.5611 27.1333 97.2011 26.72 99.0411 26.72C101.014 26.72 102.788 27.1867 104.361 28.12C105.934 29.0533 107.174 30.3733 108.081 32.08C108.988 33.76 109.441 35.72 109.441 37.96C109.441 40.1733 108.988 42.1467 108.081 43.88C107.174 45.6133 105.921 46.96 104.321 47.92C102.748 48.88 100.988 49.36 99.0411 49.36C97.1478 49.36 95.4811 48.9467 94.0411 48.12C92.6278 47.2933 91.5611 46.24 90.8411 44.96V49H87.2011V19.4H90.8411V31.16ZM105.721 37.96C105.721 36.3067 105.388 34.8667 104.721 33.64C104.054 32.4133 103.148 31.48 102.001 30.84C100.881 30.2 99.6411 29.88 98.2811 29.88C96.9478 29.88 95.7078 30.2133 94.5611 30.88C93.4411 31.52 92.5344 32.4667 91.8411 33.72C91.1744 34.9467 90.8411 36.3733 90.8411 38C90.8411 39.6533 91.1744 41.1067 91.8411 42.36C92.5344 43.5867 93.4411 44.5333 94.5611 45.2C95.7078 45.84 96.9478 46.16 98.2811 46.16C99.6411 46.16 100.881 45.84 102.001 45.2C103.148 44.5333 104.054 43.5867 104.721 42.36C105.388 41.1067 105.721 39.64 105.721 37.96ZM123.792 49.36C121.739 49.36 119.872 48.8933 118.192 47.96C116.539 47.0267 115.232 45.7067 114.272 44C113.339 42.2667 112.872 40.2667 112.872 38C112.872 35.76 113.352 33.7867 114.312 32.08C115.299 30.3467 116.632 29.0267 118.312 28.12C119.992 27.1867 121.872 26.72 123.952 26.72C126.032 26.72 127.912 27.1867 129.592 28.12C131.272 29.0267 132.592 30.3333 133.552 32.04C134.539 33.7467 135.032 35.7333 135.032 38C135.032 40.2667 134.526 42.2667 133.512 44C132.526 45.7067 131.179 47.0267 129.472 47.96C127.766 48.8933 125.872 49.36 123.792 49.36ZM123.792 46.16C125.099 46.16 126.326 45.8533 127.472 45.24C128.619 44.6267 129.539 43.7067 130.232 42.48C130.952 41.2533 131.312 39.76 131.312 38C131.312 36.24 130.966 34.7467 130.272 33.52C129.579 32.2933 128.672 31.3867 127.552 30.8C126.432 30.1867 125.219 29.88 123.912 29.88C122.579 29.88 121.352 30.1867 120.232 30.8C119.139 31.3867 118.259 32.2933 117.592 33.52C116.926 34.7467 116.592 36.24 116.592 38C116.592 39.7867 116.912 41.2933 117.552 42.52C118.219 43.7467 119.099 44.6667 120.192 45.28C121.286 45.8667 122.486 46.16 123.792 46.16ZM151.258 49L146.058 40.84L141.058 49H137.258L144.338 38.12L137.258 27.08H141.378L146.578 35.2L151.538 27.08H155.338L148.298 37.92L155.378 49H151.258Z" fill="white"/>
<path d="M90.8411 31.16H89.8411V34.9256L91.7093 31.6561L90.8411 31.16ZM94.1211 27.96L94.619 28.8273L94.619 28.8273L94.1211 27.96ZM104.361 28.12L104.871 27.2599L104.871 27.2599L104.361 28.12ZM108.081 32.08L107.198 32.5492L107.201 32.5549L108.081 32.08ZM108.081 43.88L108.967 44.3435L108.967 44.3435L108.081 43.88ZM104.321 47.92L103.807 47.0625L103.8 47.0664L104.321 47.92ZM94.0411 48.12L93.5362 48.9832L93.5432 48.9873L94.0411 48.12ZM90.8411 44.96L91.7127 44.4697L89.8411 41.1425V44.96H90.8411ZM90.8411 49V50H91.8411V49H90.8411ZM87.2011 49H86.2011V50H87.2011V49ZM87.2011 19.4V18.4H86.2011V19.4H87.2011ZM90.8411 19.4H91.8411V18.4H90.8411V19.4ZM104.721 33.64L105.6 33.1625L105.6 33.1625L104.721 33.64ZM102.001 30.84L101.505 31.7083L101.514 31.7132L102.001 30.84ZM94.5611 30.88L95.0572 31.7483L95.0637 31.7445L94.5611 30.88ZM91.8411 33.72L90.966 33.2359L90.9625 33.2425L91.8411 33.72ZM91.8411 42.36L90.9582 42.8296L90.9642 42.8409L90.9705 42.8521L91.8411 42.36ZM94.5611 45.2L94.0496 46.0593L94.0616 46.0664L94.0737 46.0732L94.5611 45.2ZM102.001 45.2L102.497 46.0683L102.504 46.0645L102.001 45.2ZM104.721 42.36L105.6 42.8375L105.604 42.8296L104.721 42.36ZM91.7093 31.6561C92.3588 30.5195 93.3169 29.5748 94.619 28.8273L93.6232 27.0927C92.0453 27.9986 90.8167 29.1871 89.9729 30.6639L91.7093 31.6561ZM94.619 28.8273C95.8915 28.0967 97.3564 27.72 99.0411 27.72V25.72C97.0458 25.72 95.2307 26.1699 93.6232 27.0927L94.619 28.8273ZM99.0411 27.72C100.85 27.72 102.444 28.1455 103.851 28.9801L104.871 27.2599C103.131 26.2278 101.179 25.72 99.0411 25.72V27.72ZM103.851 28.9801C105.257 29.8144 106.372 30.995 107.198 32.5492L108.964 31.6108C107.977 29.7517 106.611 28.2923 104.871 27.2599L103.851 28.9801ZM107.201 32.5549C108.016 34.0656 108.441 35.857 108.441 37.96H110.441C110.441 35.583 109.959 33.4544 108.961 31.6051L107.201 32.5549ZM108.441 37.96C108.441 40.0334 108.017 41.8441 107.195 43.4165L108.967 44.3435C109.958 42.4493 110.441 40.3133 110.441 37.96H108.441ZM107.195 43.4165C106.369 44.9951 105.241 46.2018 103.807 47.0625L104.836 48.7775C106.601 47.7182 107.98 46.2316 108.967 44.3435L107.195 43.4165ZM103.8 47.0664C102.393 47.9252 100.815 48.36 99.0411 48.36V50.36C101.161 50.36 103.103 49.8348 104.842 48.7736L103.8 47.0664ZM99.0411 48.36C97.2976 48.36 95.8072 47.9808 94.539 47.2527L93.5432 48.9873C95.155 49.9125 96.998 50.36 99.0411 50.36V48.36ZM94.546 47.2568C93.2678 46.5092 92.336 45.5779 91.7127 44.4697L89.9695 45.4503C90.7862 46.9021 91.9878 48.0775 93.5362 48.9832L94.546 47.2568ZM89.8411 44.96V49H91.8411V44.96H89.8411ZM90.8411 48H87.2011V50H90.8411V48ZM88.2011 49V19.4H86.2011V49H88.2011ZM87.2011 20.4H90.8411V18.4H87.2011V20.4ZM89.8411 19.4V31.16H91.8411V19.4H89.8411ZM106.721 37.96C106.721 36.1706 106.36 34.5605 105.6 33.1625L103.842 34.1175C104.416 35.1728 104.721 36.4427 104.721 37.96H106.721ZM105.6 33.1625C104.849 31.7805 103.811 30.7049 102.488 29.9668L101.514 31.7132C102.485 32.2551 103.26 33.0461 103.842 34.1175L105.6 33.1625ZM102.497 29.9718C101.218 29.2407 99.8053 28.88 98.2811 28.88V30.88C99.4769 30.88 100.544 31.1593 101.505 31.7082L102.497 29.9718ZM98.2811 28.88C96.7722 28.88 95.3586 29.2596 94.0585 30.0155L95.0637 31.7445C96.0569 31.1671 97.1234 30.88 98.2811 30.88V28.88ZM94.065 30.0118C92.7687 30.7525 91.738 31.8405 90.9661 33.2359L92.7161 34.2041C93.3308 33.0929 94.1135 32.2875 95.0572 31.7482L94.065 30.0118ZM90.9625 33.2425C90.2039 34.6382 89.8411 36.2342 89.8411 38H91.8411C91.8411 36.5125 92.145 35.2551 92.7197 34.1975L90.9625 33.2425ZM89.8411 38C89.8411 39.79 90.2029 41.4096 90.9582 42.8296L92.724 41.8904C92.146 40.8038 91.8411 39.5166 91.8411 38H89.8411ZM90.9705 42.8521C91.7424 44.2176 92.768 45.2964 94.0496 46.0593L95.0726 44.3407C94.1142 43.7703 93.3265 42.9557 92.7117 41.8679L90.9705 42.8521ZM94.0737 46.0732C95.3717 46.7977 96.7799 47.16 98.2811 47.16V45.16C97.1156 45.16 96.0438 44.8823 95.0485 44.3268L94.0737 46.0732ZM98.2811 47.16C99.8053 47.16 101.218 46.7993 102.497 46.0682L101.505 44.3318C100.544 44.8807 99.4769 45.16 98.2811 45.16V47.16ZM102.504 46.0645C103.817 45.3008 104.85 44.2164 105.6 42.8375L103.842 41.8825C103.259 42.957 102.478 43.7659 101.498 44.3355L102.504 46.0645ZM105.604 42.8296C106.36 41.4073 106.721 39.7738 106.721 37.96H104.721C104.721 39.5062 104.415 40.806 103.838 41.8904L105.604 42.8296ZM118.192 47.96L117.701 48.8308L117.707 48.8342L118.192 47.96ZM114.272 44L113.392 44.4741L113.396 44.4822L113.401 44.4903L114.272 44ZM114.312 32.08L113.443 31.5853L113.441 31.5897L114.312 32.08ZM118.312 28.12L118.787 29.0001L118.798 28.9942L118.312 28.12ZM129.592 28.12L129.107 28.9942L129.117 29L129.592 28.12ZM133.552 32.04L132.681 32.5303L132.687 32.5405L133.552 32.04ZM133.512 44L132.649 43.4953L132.647 43.4995L133.512 44ZM129.472 47.96L129.952 48.8374L129.952 48.8374L129.472 47.96ZM130.232 42.48L129.37 41.9738L129.366 41.9808L129.362 41.9879L130.232 42.48ZM127.552 30.8L127.072 31.6771L127.08 31.6815L127.088 31.6858L127.552 30.8ZM120.232 30.8L120.705 31.6812L120.713 31.6771L120.232 30.8ZM117.592 33.52L118.471 33.9975L118.471 33.9975L117.592 33.52ZM117.552 42.52L116.666 42.9826L116.67 42.9901L116.674 42.9975L117.552 42.52ZM120.192 45.28L119.703 46.1521L119.711 46.1567L119.72 46.1612L120.192 45.28ZM123.792 48.36C121.897 48.36 120.199 47.931 118.678 47.0858L117.707 48.8342C119.545 49.8557 121.581 50.36 123.792 50.36V48.36ZM118.684 47.0892C117.195 46.2485 116.017 45.0625 115.144 43.5097L113.401 44.4903C114.447 46.3509 115.883 47.8048 117.701 48.8308L118.684 47.0892ZM115.153 43.5259C114.309 41.959 113.872 40.1264 113.872 38H111.872C111.872 40.4069 112.369 42.5743 113.392 44.4741L115.153 43.5259ZM113.872 38C113.872 35.9067 114.32 34.1068 115.184 32.5703L113.441 31.5897C112.385 33.4665 111.872 35.6133 111.872 38H113.872ZM115.181 32.5747C116.08 30.9965 117.28 29.8136 118.787 29L117.837 27.24C115.985 28.2397 114.518 29.6968 113.443 31.5853L115.181 32.5747ZM118.798 28.9942C120.317 28.1501 122.028 27.72 123.952 27.72V25.72C121.717 25.72 119.667 26.2233 117.827 27.2458L118.798 28.9942ZM123.952 27.72C125.877 27.72 127.587 28.1501 129.107 28.9942L130.078 27.2458C128.237 26.2233 126.188 25.72 123.952 25.72V27.72ZM129.117 29C130.627 29.8145 131.811 30.9839 132.681 32.5303L134.424 31.5497C133.374 29.6827 131.918 28.2389 130.067 27.24L129.117 29ZM132.687 32.5405C133.573 34.0735 134.032 35.8824 134.032 38H136.032C136.032 35.5843 135.505 33.4199 134.418 31.5395L132.687 32.5405ZM134.032 38C134.032 40.1126 133.562 41.9341 132.649 43.4953L134.376 44.5047C135.49 42.5993 136.032 40.4207 136.032 38H134.032ZM132.647 43.4995C131.75 45.0498 130.536 46.2384 128.993 47.0826L129.952 48.8374C131.822 47.8149 133.301 46.3635 134.378 44.5005L132.647 43.4995ZM128.993 47.0826C127.443 47.9299 125.717 48.36 123.792 48.36V50.36C126.028 50.36 128.088 49.8567 129.952 48.8374L128.993 47.0826ZM123.792 47.16C125.263 47.16 126.652 46.8131 127.944 46.1218L127.001 44.3582C126 44.8935 124.935 45.16 123.792 45.16V47.16ZM127.944 46.1218C129.272 45.4115 130.324 44.3495 131.103 42.9721L129.362 41.9879C128.754 43.0639 127.966 43.8418 127.001 44.3582L127.944 46.1218ZM131.095 42.9862C131.924 41.5735 132.312 39.896 132.312 38H130.312C130.312 39.624 129.981 40.9331 129.37 41.9738L131.095 42.9862ZM132.312 38C132.312 36.1099 131.94 34.4377 131.143 33.0279L129.402 34.0121C129.992 35.0556 130.312 36.3701 130.312 38H132.312ZM131.143 33.0279C130.366 31.6535 129.326 30.6002 128.016 29.9142L127.088 31.6858C128.019 32.1731 128.792 32.9332 129.402 34.0121L131.143 33.0279ZM128.033 29.9229C126.762 29.227 125.383 28.88 123.912 28.88V30.88C125.055 30.88 126.103 31.1463 127.072 31.6771L128.033 29.9229ZM123.912 28.88C122.419 28.88 121.026 29.2253 119.752 29.9229L120.713 31.6771C121.679 31.148 122.739 30.88 123.912 30.88V28.88ZM119.76 29.9188C118.474 30.6089 117.461 31.6667 116.714 33.0425L118.471 33.9975C119.057 32.9199 119.804 32.1645 120.705 31.6812L119.76 29.9188ZM116.714 33.0425C115.949 34.4491 115.592 36.1158 115.592 38H117.592C117.592 36.3642 117.902 35.0443 118.471 33.9975L116.714 33.0425ZM115.592 38C115.592 39.9022 115.933 41.5776 116.666 42.9826L118.439 42.0574C117.892 41.0091 117.592 39.6711 117.592 38H115.592ZM116.674 42.9975C117.42 44.3704 118.427 45.4363 119.703 46.1521L120.682 44.4079C119.771 43.897 119.018 43.123 118.431 42.0425L116.674 42.9975ZM119.72 46.1612C120.966 46.83 122.33 47.16 123.792 47.16V45.16C122.642 45.16 121.605 44.9033 120.665 44.3988L119.72 46.1612ZM151.258 49L150.415 49.5374L150.71 50H151.258V49ZM146.058 40.84L146.902 40.3026L146.042 38.9531L145.206 40.3175L146.058 40.84ZM141.058 49V50H141.618L141.911 49.5225L141.058 49ZM137.258 49L136.42 48.4546L135.414 50H137.258V49ZM144.338 38.12L145.176 38.6654L145.529 38.124L145.18 37.5802L144.338 38.12ZM137.258 27.08V26.08H135.429L136.417 27.6198L137.258 27.08ZM141.378 27.08L142.22 26.5407L141.925 26.08H141.378V27.08ZM146.578 35.2L145.736 35.7393L146.598 37.0856L147.432 35.7213L146.578 35.2ZM151.538 27.08V26.08H150.977L150.685 26.5587L151.538 27.08ZM155.338 27.08L156.177 27.6247L157.18 26.08H155.338V27.08ZM148.298 37.92L147.46 37.3753L147.109 37.9156L147.456 38.4584L148.298 37.92ZM155.378 49V50H157.204L156.221 48.4616L155.378 49ZM152.102 48.4626L146.902 40.3026L145.215 41.3774L150.415 49.5374L152.102 48.4626ZM145.206 40.3175L140.206 48.4775L141.911 49.5225L146.911 41.3625L145.206 40.3175ZM141.058 48H137.258V50H141.058V48ZM138.096 49.5454L145.176 38.6654L143.5 37.5746L136.42 48.4546L138.096 49.5454ZM145.18 37.5802L138.1 26.5402L136.417 27.6198L143.497 38.6598L145.18 37.5802ZM137.258 28.08H141.378V26.08H137.258V28.08ZM140.536 27.6193L145.736 35.7393L147.42 34.6607L142.22 26.5407L140.536 27.6193ZM147.432 35.7213L152.392 27.6013L150.685 26.5587L145.725 34.6787L147.432 35.7213ZM151.538 28.08H155.338V26.08H151.538V28.08ZM154.5 26.5353L147.46 37.3753L149.137 38.4647L156.177 27.6247L154.5 26.5353ZM147.456 38.4584L154.536 49.5384L156.221 48.4616L149.141 37.3816L147.456 38.4584ZM155.378 48H151.258V50H155.378V48Z" fill="white"/>
</g>
<defs>
<filter id="filter0_d_1_59" x="83.2011" y="19.3999" width="76.1772" height="37.9602" filterUnits="userSpaceOnUse" color-interpolation-filters="sRGB">
<feFlood flood-opacity="0" result="BackgroundImageFix"/>
<feColorMatrix in="SourceAlpha" type="matrix" values="0 0 0 0 0 0 0 0 0 0 0 0 0 0 0 0 0 0 127 0" result="hardAlpha"/>
<feOffset dy="4"/>
<feGaussianBlur stdDeviation="2"/>
<feComposite in2="hardAlpha" operator="out"/>
<feColorMatrix type="matrix" values="0 0 0 0 0 0 0 0 0 0 0 0 0 0 0 0 0 0 0.25 0"/>
<feBlend mode="normal" in2="BackgroundImageFix" result="effect1_dropShadow_1_59"/>
<feBlend mode="normal" in="SourceGraphic" in2="effect1_dropShadow_1_59" result="shape"/>
</filter>
<linearGradient id="paint0_linear_1_59" x1="3.29954e-07" y1="5" x2="70" y2="70" gradientUnits="userSpaceOnUse">
<stop stop-color="#326CFF"/>
<stop offset="1" stop-color="#26FFF2"/>
</linearGradient>
</defs>
</svg>
